<svg xmlns="http://www.w3.org/2000/svg" viewBox="0 0 1200 900" fill="none" role="img" aria-label="Abstract system blueprint">
  <defs>
    <pattern id="grid" width="40" height="40" patternUnits="userSpaceOnUse">
      <path d="M40 0H0V40" fill="none" stroke="#ffffff" stroke-opacity="0.08" stroke-width="1" />
    </pattern>
    <linearGradient id="glow" x1="120" y1="120" x2="1080" y2="780" gradientUnits="userSpaceOnUse">
      <stop stop-color="#34d399" stop-opacity="0.14" />
      <stop offset="0.55" stop-color="#38bdf8" stop-opacity="0.14" />
      <stop offset="1" stop-color="#c084fc" stop-opacity="0.10" />
    </linearGradient>
  </defs>

  <rect width="1200" height="900" rx="48" fill="url(#glow)" />
  <rect width="1200" height="900" rx="48" fill="url(#grid)" />

  <g stroke="#ffffff" stroke-opacity="0.14" stroke-width="2">
    <rect x="120" y="170" width="280" height="160" rx="28" fill="#0b0f17" fill-opacity="0.55" />
    <rect x="460" y="170" width="280" height="160" rx="28" fill="#0b0f17" fill-opacity="0.55" />
    <rect x="800" y="170" width="280" height="160" rx="28" fill="#0b0f17" fill-opacity="0.55" />

    <rect x="120" y="410" width="420" height="220" rx="28" fill="#0b0f17" fill-opacity="0.55" />
    <rect x="600" y="410" width="480" height="220" rx="28" fill="#0b0f17" fill-opacity="0.55" />

    <rect x="120" y="690" width="960" height="110" rx="28" fill="#0b0f17" fill-opacity="0.55" />
  </g>

  <g stroke="#ffffff" stroke-opacity="0.16" stroke-width="3" stroke-linecap="round">
    <path d="M260 340V392" />
    <path d="M600 340V392" />
    <path d="M940 340V392" />
    <path d="M330 392H870" />
    <path d="M540 520H600" />
    <path d="M540 560H600" />
    <path d="M600 520V560" />
    <path d="M600 560V650" />
  </g>

  <g>
    <circle cx="260" cy="392" r="6" fill="#34d399" fill-opacity="0.55" />
    <circle cx="600" cy="392" r="6" fill="#38bdf8" fill-opacity="0.55" />
    <circle cx="940" cy="392" r="6" fill="#c084fc" fill-opacity="0.55" />
    <circle cx="600" cy="650" r="6" fill="#38bdf8" fill-opacity="0.55" />
  </g>

  <g stroke="#ffffff" stroke-opacity="0.16" stroke-width="8" stroke-linecap="round">
    <path d="M170 225H350" />
    <path d="M510 225H690" />
    <path d="M850 225H1030" />

    <path d="M170 465H410" />
    <path d="M170 505H380" />
    <path d="M170 545H360" />

    <path d="M650 465H1010" />
    <path d="M650 505H950" />
    <path d="M650 545H910" />

    <path d="M170 735H1030" />
  </g>
</svg>

